<?xml version="1.0" standalone="no"?>
<!DOCTYPE svg PUBLIC "-//W3C//DTD SVG 20010904//EN"
 "http://www.w3.org/TR/2001/REC-SVG-20010904/DTD/svg10.dtd">
<svg version="1.0" xmlns="http://www.w3.org/2000/svg"
 width="512.000000pt" height="512.000000pt" viewBox="0 0 512.000000 512.000000"
 preserveAspectRatio="xMidYMid meet">
<metadata>
Created by potrace 1.14, written by Peter Selinger 2001-2017
</metadata>
<g transform="translate(0.000000,512.000000) scale(0.100000,-0.100000)"
fill="#000000" stroke="none">
<path d="M751 5105 c-353 -64 -625 -313 -723 -660 l-22 -80 -3 -992 -4 -993
726 0 725 0 0 -24 c0 -42 49 -196 90 -280 166 -345 491 -583 864 -635 487 -68
960 188 1176 635 41 84 90 238 90 280 l0 24 725 0 726 0 -4 993 -3 992 -22 80
c-89 314 -332 558 -647 647 l-80 22 -1770 2 c-1455 2 -1783 0 -1844 -11z
m1904 -1739 c112 -9 257 -62 359 -130 69 -46 193 -177 239 -252 91 -151 137
-367 111 -526 l-7 -38 -797 0 -797 0 -7 38 c-26 159 20 375 111 526 46 75 170
206 239 252 108 72 268 127 384 133 30 1 57 4 59 6 2 2 15 2 30 0 14 -2 49 -6
76 -9z"/>
</g>
</svg>
